<?xml version="1.0" encoding="utf-8"?>
<!-- Generator: Adobe Illustrator 25.2.0, SVG Export Plug-In . SVG Version: 6.00 Build 0)  -->
<svg version="1.1" id="Layer_1" xmlns="http://www.w3.org/2000/svg" xmlns:xlink="http://www.w3.org/1999/xlink" x="0px" y="0px"
	 viewBox="0 0 432 288" style="enable-background:new 0 0 432 288;" xml:space="preserve">
<style type="text/css">
	.st0{fill:#06181F;}
	.st1{fill:#204E4B;}
</style>
<g>
	<path class="st0" d="M48.1,129.44l-5.6,5.3c-1.96-2.93-3.97-4.4-6-4.4c-0.99,0-1.8,0.29-2.43,0.85c-0.63,0.57-0.95,1.21-0.95,1.93
		c0,0.71,0.23,1.39,0.68,2.03c0.61,0.85,2.46,2.67,5.54,5.47c2.88,2.59,4.63,4.22,5.25,4.89c1.53,1.66,2.62,3.25,3.26,4.76
		c0.64,1.52,0.96,3.17,0.96,4.97c0,3.49-1.13,6.38-3.38,8.66c-2.25,2.28-5.19,3.42-8.81,3.42c-2.83,0-5.29-0.74-7.39-2.23
		c-2.1-1.49-3.9-3.82-5.39-7.01l6.35-4.11c1.91,3.76,4.11,5.64,6.6,5.64c1.3,0,2.39-0.41,3.27-1.22c0.88-0.81,1.32-1.75,1.32-2.81
		c0-0.97-0.33-1.93-1-2.9c-0.67-0.97-2.14-2.44-4.41-4.43c-4.33-3.78-7.12-6.7-8.38-8.76c-1.26-2.06-1.89-4.11-1.89-6.15
		c0-2.95,1.05-5.49,3.15-7.6c2.1-2.11,4.69-3.17,7.77-3.17c1.98,0,3.87,0.49,5.66,1.48C44.07,125.04,46.01,126.84,48.1,129.44z"/>
	<path class="st0" d="M55.74,123.65h7.58v27.54c0,2.37,0.19,4.05,0.58,5.03c0.39,0.98,1.03,1.77,1.92,2.36
		c0.89,0.59,1.97,0.88,3.23,0.88c1.33,0,2.48-0.33,3.44-0.98c0.96-0.66,1.63-1.49,2-2.5c0.37-1.01,0.55-2.94,0.55-5.8v-26.53h7.58
		v25.39c0,4.28-0.23,7.26-0.67,8.92c-0.45,1.66-1.31,3.26-2.58,4.81c-1.27,1.54-2.73,2.69-4.38,3.43c-1.66,0.74-3.58,1.11-5.78,1.11
		c-2.88,0-5.38-0.71-7.52-2.13c-2.13-1.42-3.66-3.19-4.57-5.33c-0.92-2.13-1.38-5.74-1.38-10.81V123.65z"/>
	<path class="st0" d="M91.9,123.65h8.01c4.39,0,7.51,0.42,9.37,1.26c1.86,0.84,3.36,2.23,4.49,4.18c1.13,1.95,1.7,4.26,1.7,6.92
		c0,2.8-0.63,5.14-1.88,7.02c-1.25,1.88-3.14,3.31-5.65,4.27l9.4,18.93h-8.26l-8.93-18.04h-0.69v18.04H91.9V123.65z M99.46,140.3
		h2.37c2.4,0,4.06-0.34,4.96-1.02c0.91-0.68,1.36-1.8,1.36-3.37c0-0.93-0.22-1.74-0.67-2.42c-0.45-0.69-1.05-1.18-1.8-1.48
		c-0.75-0.3-2.13-0.45-4.14-0.45h-2.07V140.3z"/>
	<path class="st0" d="M123.56,123.65h19.7v7.9h-12.2v7.73h12.2v7.79h-12.2v19.17h-7.5V123.65z"/>
	<path class="st0" d="M162.09,123.65h7.66l15.27,42.59h-7.85l-3.11-8.77h-16.2l-3.23,8.77h-7.85L162.09,123.65z M165.97,134.95
		l-5.33,14.62h10.62L165.97,134.95z"/>
	<path class="st0" d="M227.35,131.14l-5.29,5.4c-3.6-4.08-7.64-6.11-12.13-6.11c-3.79,0-6.99,1.39-9.59,4.17
		c-2.6,2.78-3.9,6.21-3.9,10.29c0,2.84,0.58,5.36,1.73,7.56c1.15,2.2,2.78,3.93,4.88,5.19c2.1,1.26,4.44,1.88,7.01,1.88
		c2.19,0,4.2-0.44,6.01-1.32c1.81-0.88,3.81-2.48,5.99-4.8l5.12,5.74c-2.93,3.07-5.7,5.2-8.31,6.39c-2.61,1.19-5.59,1.78-8.93,1.78
		c-6.17,0-11.22-2.1-15.15-6.3c-3.93-4.2-5.9-9.58-5.9-16.14c0-4.25,0.89-8.02,2.69-11.32c1.79-3.3,4.35-5.95,7.69-7.96
		c3.34-2.01,6.93-3.01,10.78-3.01c3.27,0,6.43,0.74,9.46,2.23C222.54,126.29,225.16,128.4,227.35,131.14z"/>
	<path class="st0" d="M233.99,123.65h21.67v7.93H241.5v7.7h14.17v7.79H241.5v11.2h14.17v7.96h-21.67V123.65z"/>
	<path class="st0" d="M283.73,123.65h7.25l16.99,28.02v-28.02h7.56v42.59h-7.27l-16.96-27.94v27.94h-7.56V123.65z"/>
	<path class="st0" d="M370.46,123.65h7.5v42.59h-7.5V123.65z"/>
	<path class="st0" d="M384.36,123.65h24.02l-14.13,34.8h13.22v7.79H383.2l14.07-34.57h-12.91V123.65z"/>
	<g>
		<path class="st0" d="M343.33,122.61c-11.67,0-21.13,10.15-21.13,22.66c0,12.52,9.46,22.66,21.13,22.66
			c11.67,0,21.13-10.15,21.13-22.66C364.46,132.76,355,122.61,343.33,122.61z M354.31,146.1c0-0.68,0.51-1.23,1.15-1.23
			c0.63,0,1.15,0.55,1.15,1.23c0,7.4-5.61,13.42-12.51,13.42c-0.64,0-1.15-0.55-1.15-1.24c0-0.68,0.52-1.24,1.15-1.24
			C349.73,157.05,354.31,152.14,354.31,146.1z M327.26,146.1c0,0.68-0.52,1.24-1.15,1.24c-0.64,0-1.15-0.55-1.15-1.24
			c0-11.32,8.59-20.53,19.14-20.53c0.64,0,1.15,0.55,1.15,1.24c0,0.68-0.52,1.24-1.15,1.24
			C334.82,128.04,327.26,136.14,327.26,146.1z M332.35,144.45c0,0.68-0.51,1.24-1.15,1.24c-0.64,0-1.15-0.55-1.15-1.24
			c0-7.4,5.61-13.42,12.51-13.42c0.64,0,1.15,0.55,1.15,1.24c0,0.68-0.51,1.24-1.15,1.24C336.93,133.5,332.35,138.42,332.35,144.45z
			 M335.59,145.07c0-4.56,3.45-8.27,7.7-8.27c4.26,0,7.71,3.7,7.71,8.27c0,4.56-3.45,8.27-7.71,8.27
			C339.04,153.34,335.59,149.63,335.59,145.07z M342.56,164.99c-0.64,0-1.15-0.55-1.15-1.24s0.51-1.23,1.15-1.23
			c9.28,0,16.84-8.1,16.84-18.06c0-0.68,0.52-1.23,1.15-1.23c0.64,0,1.15,0.55,1.15,1.23C361.7,155.78,353.12,164.99,342.56,164.99z
			"/>
		<path class="st0" d="M344.01,145.07c0-0.42-0.32-0.76-0.71-0.76c-0.39,0-0.71,0.34-0.71,0.76c0,0.42,0.32,0.76,0.71,0.76
			C343.69,145.83,344.01,145.49,344.01,145.07z"/>
	</g>
	<path class="st1" d="M396.34,113.19c-0.75-13.41-1.44-22.76-2.16-29.35c-0.46-4.15-0.93-7.21-1.44-9.37
		c-0.4-1.7-1.15-4.86-3.59-4.86c-2.33,0-3.58,2.03-4.86,14.08c-0.71,6.71-1.37,16.11-2.07,29.51h-11.3
		c-0.55-12.86-1.3-28.8-2.25-40.24c-0.47-5.69-0.96-9.89-1.48-12.83c-0.59-3.31-1.32-6.29-3.71-6.29h0c-2.35,0-3.05,2.94-3.62,6.22
		c-0.5,2.91-0.97,7.06-1.42,12.7c-0.73,9.05-1.42,21.92-2.17,40.44H345.4c-0.61-17.36-1.36-36.86-2.31-51.11
		c-0.48-7.25-0.98-12.6-1.51-16.33c-0.74-5.21-1.5-7.68-3.77-7.68h0h0c-2.25,0-2.98,2.45-3.7,7.6c-0.52,3.7-0.99,8.99-1.46,16.17
		c-0.75,11.5-1.44,27.36-2.24,51.35h-11.25c-0.72-18.5-1.39-31.42-2.11-40.6c-0.44-5.59-0.88-9.7-1.37-12.59
		c-0.57-3.37-1.22-6.17-3.54-6.17c0,0,0,0,0,0c-2.35,0-3.05,2.94-3.62,6.22c-0.5,2.91-0.97,7.06-1.42,12.7
		c-0.73,9.06-1.42,21.93-2.17,40.44h-11.74c-0.67-13.39-1.3-22.83-2-29.63c-0.42-4.06-0.84-7.06-1.3-9.17
		c-0.39-1.79-1.04-4.79-3.41-4.79c-2.33,0-3.58,2.03-4.86,14.08c-0.71,6.71-1.37,16.11-2.07,29.51h-12.52
		c-0.59-8.24-1.18-14.34-1.82-18.62c-0.91-6.1-1.83-9.2-4.39-9.2c0,0,0,0,0,0c-2.61,0-3.61,3.26-4.55,9.26
		c-0.66,4.24-1.29,10.32-1.91,18.55H240.3c-1.25-9.09-2.53-12.04-5.15-12.04c-2.7,0-4.09,3.06-5.41,12.04h-14.84
		c-1.32-8.98-2.71-12.04-5.41-12.04c-2.7,0-4.09,3.06-5.41,12.04h-13.49c-1.94-23.92-3.59-27.81-6.76-27.81c0,0,0,0,0,0
		c-2.61,0-3.61,3.26-4.55,9.26c-0.66,4.24-1.29,10.32-1.91,18.55h-12.02c-0.75-13.41-1.44-22.76-2.16-29.35
		c-0.46-4.15-0.93-7.21-1.44-9.37c-0.4-1.7-1.15-4.86-3.59-4.86c-2.33,0-3.58,2.03-4.86,14.08c-0.71,6.71-1.37,16.11-2.07,29.51
		h-11.3c-0.55-12.86-1.3-28.8-2.25-40.24c-0.47-5.69-0.96-9.89-1.48-12.83c-0.59-3.31-1.32-6.29-3.7-6.29c0,0,0,0,0,0
		c-2.35,0-3.05,2.94-3.62,6.22c-0.5,2.91-0.97,7.06-1.42,12.7c-0.73,9.05-1.42,21.92-2.17,40.44h-10.85
		c-0.61-17.36-1.36-36.86-2.31-51.12c-0.48-7.25-0.98-12.59-1.51-16.32c-0.74-5.21-1.5-7.68-3.77-7.68c0,0,0,0,0,0
		c-2.24,0-2.98,2.45-3.7,7.6c-0.52,3.7-0.99,8.99-1.46,16.17c-0.75,11.5-1.44,27.37-2.24,51.35H88.19
		c-0.72-18.5-1.39-31.42-2.11-40.6C85.64,67,85.2,62.89,84.71,60c-0.56-3.37-1.22-6.17-3.54-6.17c-2.35,0-3.05,2.94-3.62,6.22
		c-0.5,2.91-0.97,7.06-1.42,12.7c-0.73,9.05-1.42,21.92-2.17,40.44H62.22c-0.67-13.4-1.3-22.83-2-29.63
		c-0.42-4.06-0.84-7.06-1.3-9.17c-0.39-1.79-1.04-4.79-3.41-4.79c-2.33,0-3.58,2.03-4.86,14.08c-0.71,6.71-1.37,16.11-2.07,29.51
		H36.06c-0.59-8.24-1.18-14.34-1.82-18.62c-0.91-6.1-1.83-9.2-4.39-9.2c-3.17,0-4.83,3.89-6.78,27.81h-0.34v1.96h386.11v-1.96
		H396.34z M389.2,76.44c1.58,8.14,2.74,28.12,3.22,36.75h-6.27C387.13,94.41,388.15,82.1,389.2,76.44z M363.52,61.77
		c1.71,11.09,2.93,38.71,3.47,51.42h-6.8C360.66,101.43,361.84,73.08,363.52,61.77z M337.84,47.1c1.78,13.87,3.03,48.66,3.64,66.1
		h-7.15C334.87,97.03,336.08,61.26,337.84,47.1z M312.1,62.32c1.58,11.68,2.68,39.31,3.13,50.87h-6.38
		C309.32,101.62,310.47,73.97,312.1,62.32z M286.42,77.03c0.81,4.99,1.8,15.42,2.84,36.16h-5.79
		C284.43,95.03,285.41,82.92,286.42,77.03z M260.75,91.79c0.64,3.11,1.46,9.28,2.33,21.4h-4.8
		C259.21,101.03,260.08,94.87,260.75,91.79z M235.07,106.59c0.35,1.23,0.79,3.26,1.27,6.6h-2.63
		C234.22,109.83,234.7,107.8,235.07,106.59z M209.48,106.35c0.38,1.18,0.89,3.25,1.44,6.84h-2.88
		C208.59,109.59,209.1,107.53,209.48,106.35z M183.89,91.25c0.73,2.86,1.7,8.99,2.76,21.94h-5.35
		C182.28,100.28,183.19,94.14,183.89,91.25z M158.21,76.47c1.08,5.64,2.16,17.94,3.21,36.73h-6.27
		C156.14,94.43,157.17,82.13,158.21,76.47z M132.54,61.77c1.71,11.09,2.92,38.71,3.47,51.42h-6.8
		C129.68,101.43,130.87,73.09,132.54,61.77z M106.87,47.1c1.78,13.88,3.02,48.67,3.63,66.09h-7.14
		C103.9,97.03,105.11,61.26,106.87,47.1z M81.14,62.32c1.58,11.68,2.68,39.3,3.13,50.87h-6.38C78.35,101.62,79.51,73.98,81.14,62.32
		z M55.46,77.03c0.81,4.99,1.8,15.42,2.84,36.16h-5.79C53.46,95.03,54.45,82.93,55.46,77.03z M29.72,91.47
		c0.65,3,1.5,9.17,2.4,21.72h-5.12C28.05,100.55,29,94.41,29.72,91.47z"/>
	<path class="st1" d="M408.84,173.49H22.73v1.96h12.78c0.74,13.28,1.43,22.54,2.16,29.08c0.46,4.1,0.92,7.14,1.43,9.27
		c0.4,1.68,1.14,4.82,3.58,4.82c0,0,0,0,0,0c2.32,0,3.57-2.01,4.84-13.94c0.71-6.65,1.37-15.96,2.07-29.22h11.33
		c0.55,12.76,1.3,28.58,2.24,39.96c0.47,5.65,0.95,9.81,1.48,12.73c0.59,3.29,1.31,6.25,3.7,6.25h0c2.35,0,3.05-2.92,3.61-6.18
		c0.5-2.89,0.96-7.01,1.42-12.6c0.73-9,1.42-21.78,2.17-40.16h10.88c0.61,17.26,1.35,36.64,2.3,50.85
		c0.48,7.21,0.97,12.51,1.51,16.22c0.74,5.18,1.5,7.64,3.77,7.64c2.24,0,2.98-2.44,3.69-7.56c0.51-3.68,0.99-8.93,1.46-16.07
		c0.75-11.44,1.44-27.22,2.24-51.08h11.28c0.71,18.36,1.38,31.19,2.1,40.32c0.44,5.54,0.88,9.63,1.36,12.49
		c0.56,3.35,1.22,6.13,3.54,6.13c0,0,0,0,0,0c0,0,0,0,0,0c2.35,0,3.05-2.92,3.61-6.18c0.5-2.89,0.96-7.01,1.42-12.6
		c0.73-9,1.42-21.78,2.17-40.16h11.78c0.66,13.27,1.3,22.61,1.99,29.34c0.41,4.02,0.84,6.99,1.3,9.08c0.39,1.78,1.04,4.75,3.4,4.75
		c2.32,0,3.57-2.01,4.84-13.94c0.71-6.65,1.37-15.96,2.07-29.22h12.57c0.58,8.11,1.18,14.12,1.81,18.33
		c0.88,5.88,1.84,9.07,4.37,9.07c2.6,0,3.6-3.21,4.53-9.13c0.66-4.18,1.28-10.17,1.9-18.27h14.15c1.23,8.78,2.5,11.63,5.09,11.63
		c2.66,0,4.04-2.95,5.35-11.63h14.97c1.31,8.67,2.68,11.63,5.35,11.63c2.66,0,4.04-2.95,5.35-11.63h13.59
		c1.92,23.56,3.57,27.4,6.73,27.4c2.6,0,3.59-3.21,4.53-9.13c0.66-4.18,1.28-10.17,1.9-18.27h12.07
		c0.74,13.28,1.43,22.54,2.15,29.07c0.46,4.1,0.92,7.14,1.43,9.27c0.4,1.68,1.14,4.82,3.58,4.82c0,0,0,0,0,0
		c2.32,0,3.57-2.01,4.84-13.94c0.71-6.65,1.37-15.96,2.07-29.22h11.34c0.55,12.76,1.3,28.59,2.24,39.97
		c0.47,5.65,0.95,9.81,1.48,12.73c0.59,3.29,1.32,6.25,3.7,6.25h0c0,0,0,0,0,0c2.35,0,3.05-2.92,3.61-6.18
		c0.5-2.89,0.96-7.01,1.42-12.6c0.73-9,1.42-21.78,2.17-40.16h10.89c0.61,17.27,1.36,36.66,2.3,50.85
		c0.48,7.21,0.97,12.51,1.51,16.22c0.74,5.18,1.5,7.64,3.77,7.64c2.24,0,2.98-2.44,3.69-7.56c0.51-3.68,0.99-8.93,1.46-16.07
		c0.75-11.45,1.44-27.23,2.24-51.08h11.28c0.71,18.36,1.38,31.19,2.1,40.32c0.44,5.54,0.88,9.63,1.36,12.49
		c0.56,3.35,1.22,6.13,3.54,6.13h0c2.35,0,3.05-2.92,3.61-6.18c0.5-2.89,0.96-7.01,1.42-12.6c0.73-9,1.42-21.78,2.17-40.16h11.78
		c0.66,13.26,1.3,22.61,1.99,29.34c0.41,4.02,0.84,6.99,1.3,9.08c0.36,1.66,1.04,4.75,3.4,4.75c0,0,0,0,0,0
		c2.32,0,3.57-2.01,4.84-13.94c0.71-6.65,1.37-15.96,2.07-29.22h12.58c0.58,8.11,1.18,14.12,1.81,18.33
		c0.88,5.88,1.84,9.07,4.37,9.07c3.16,0,4.82-3.84,6.74-27.4h0.11V173.49z M42.63,211.77c-1.08-5.6-2.15-17.76-3.19-36.31h6.22
		C44.68,193.98,43.67,206.14,42.63,211.77z M68.3,226.46c-1.7-11.02-2.91-38.4-3.45-51h6.76C71.14,187.12,69.96,215.21,68.3,226.46z
		 M93.97,241.14c-1.78-13.82-3.01-48.37-3.62-65.68h7.12C96.93,191.51,95.72,227.04,93.97,241.14z M119.7,225.89
		c-1.07-8-2.12-24.88-3.11-50.43h6.34C122.47,186.93,121.32,214.29,119.7,225.89z M145.38,211.2c-0.81-4.96-1.78-15.27-2.82-35.75
		h5.75C147.36,193.39,146.38,205.35,145.38,211.2z M171.05,196.45c-0.63-3.07-1.44-9.13-2.3-20.99h4.74
		C172.57,187.35,171.72,193.4,171.05,196.45z M196.73,181.64c-0.33-1.18-0.75-3.09-1.21-6.18h2.51
		C197.54,178.57,197.09,180.48,196.73,181.64z M222.32,181.88c-0.37-1.13-0.85-3.09-1.38-6.43h2.76
		C223.17,178.8,222.69,180.75,222.32,181.88z M247.92,196.98c-0.72-2.82-1.68-8.85-2.73-21.52h5.28
		C249.5,188.08,248.6,194.13,247.92,196.98z M273.59,211.77c-1.08-5.6-2.15-17.76-3.19-36.31h6.22
		C275.64,193.98,274.63,206.14,273.59,211.77z M299.26,226.46c-1.7-11.02-2.91-38.4-3.45-51.01h6.76
		C302.1,187.12,300.93,215.21,299.26,226.46z M324.94,241.14c-1.78-13.82-3.01-48.37-3.62-65.68h7.12
		C327.9,191.51,326.69,227.04,324.94,241.14z M350.68,225.91c-1.57-11.62-2.67-38.98-3.11-50.46h6.35
		C353.44,186.94,352.3,214.33,350.68,225.91z M376.36,211.21c-0.81-4.95-1.79-15.27-2.82-35.75h5.75
		C378.34,193.39,377.36,205.36,376.36,211.21z M402.11,196.77c-0.65-2.96-1.48-9.02-2.37-21.31h5.06
		C403.77,187.83,402.83,193.86,402.11,196.77z"/>
</g>
</svg>
